<svg xmlns="http://www.w3.org/2000/svg" xmlns:xlink="http://www.w3.org/1999/xlink" width="114" height="114" version="1.1" viewBox="0 0 114 114"><title>emulator.svg</title><defs><linearGradient id="linearGradient-1" x1="140.173%" x2="11.736%" y1="-32.113%" y2="90.735%"><stop offset="0%" stop-color="#FFF" stop-opacity="0"/><stop offset="34.14%" stop-color="#FF92FE"/><stop offset="100%" stop-color="#FF0072"/></linearGradient></defs><g id="Page-1" fill="none" fill-rule="evenodd" stroke="none" stroke-width="1"><g id="Flow-Emulator"><circle id="Color" cx="57" cy="57" r="57" fill="url(#linearGradient-1)"/><g id="joystick" fill="#FFF" fill-rule="nonzero" transform="translate(24.000000, 23.000000)"><path id="Shape" d="M31.4470588,21.1704545 C25.6575243,21.1704545 20.9647059,16.4315806 20.9647059,10.5852273 C20.9647059,4.73887393 25.6575243,0 31.4470588,0 C37.2365934,0 41.9294118,4.73887393 41.9294118,10.5852273 C41.9294118,16.4315806 37.2359382,21.1704545 31.4470588,21.1704545 Z"/><path id="Shape" d="M31.4470588,69 C25.6575243,69 20.9647059,64.2611261 20.9647059,58.4147727 C20.9647059,52.5684194 25.6575243,47.8295455 31.4470588,47.8295455 C37.2365934,47.8295455 41.9294118,52.5684194 41.9294118,58.4147727 C41.9294118,64.2611261 37.2359382,69 31.4470588,69 Z"/><path id="Shape" d="M10.4823529,44.6931818 C4.69281838,44.6931818 0,39.9543079 0,34.1079545 C0,28.2616012 4.69281838,23.5227273 10.4823529,23.5227273 C16.2718875,23.5227273 20.9647059,28.2616012 20.9647059,34.1079545 C20.9647059,39.9543079 16.2712324,44.6931818 10.4823529,44.6931818 Z"/><path id="Shape" d="M55.5176471,44.6931818 C49.7281125,44.6931818 45.0352941,39.9543079 45.0352941,34.1079545 C45.0352941,28.2616012 49.7281125,23.5227273 55.5176471,23.5227273 C61.3071816,23.5227273 66,28.2616012 66,34.1079545 C66,39.9543079 61.3065265,44.6931818 55.5176471,44.6931818 Z"/></g></g></g></svg>