<svg xmlns="http://www.w3.org/2000/svg" xmlns:xlink="http://www.w3.org/1999/xlink" width="100" height="100" version="1.1" viewBox="0 0 100 100"><title>5f6294c0c7a8cda55cb1c936_Flow_Wordmark</title><g id="Page-1" fill="none" fill-rule="evenodd" stroke="none" stroke-width="1"><g id="5f6294c0c7a8cda55cb1c936_Flow_Wordmark" fill-rule="nonzero"><circle id="Oval" cx="50" cy="50" r="50" fill="#00EF8B"/><rect id="Rectangle" width="14.12" height="14.12" x="57.82" y="42.18" fill="#FFF"/><path id="Path" fill="#FFF" d="M43.71,61.59 C43.71,64.5171092 41.3371092,66.89 38.41,66.89 C35.4828908,66.89 33.11,64.5171092 33.11,61.59 C33.11,58.6628908 35.4828908,56.29 38.41,56.29 L43.71,56.29 L43.71,42.18 L38.41,42.18 C27.690153,42.18 19,50.870153 19,61.59 C19,72.309847 27.690153,81 38.41,81 C49.129847,81 57.82,72.309847 57.82,61.59 L57.82,56.29 L43.71,56.29 L43.71,61.59 Z"/><path id="Path" fill="#FFF" d="M63.12,35.12 L79,35.12 L79,21 L63.12,21 C52.4047226,21.011024 43.721024,29.6947226 43.71,40.41 L43.71,42.18 L57.82,42.18 L57.82,40.41 C57.8255155,37.4867968 60.1967916,35.1199948 63.12,35.12 Z"/><polygon id="Path" fill="#16FF99" points="43.71 56.29 57.82 56.29 57.82 56.29 57.82 42.18 57.82 42.18 43.71 42.18"/></g></g></svg>